<?xml version="1.0" encoding="utf-8"?>
<!-- Generator: Adobe Illustrator 16.0.0, SVG Export Plug-In . SVG Version: 6.00 Build 0)  -->
<!DOCTYPE svg PUBLIC "-//W3C//DTD SVG 1.1//EN" "http://www.w3.org/Graphics/SVG/1.1/DTD/svg11.dtd">
<svg version="1.1" id="Layer_1" xmlns="http://www.w3.org/2000/svg" xmlns:xlink="http://www.w3.org/1999/xlink" x="0px" y="0px"
	 width="100px" height="100px" viewBox="0 0 100 100" enable-background="new 0 0 100 100" xml:space="preserve">
<path d="M37.628,24.784c0-0.067-0.025-0.126-0.038-0.189l14.854-5.132c0.353,5.818,2.8,14.239,6.456,18.044H47.911
	c-0.485,0-0.965,0.031-1.44,0.079c-0.12-0.051-0.251-0.079-0.389-0.079C41.499,37.507,37.628,31.681,37.628,24.784z"/>
<path d="M47.911,79.592c-8.697,0-15.772-8.991-15.772-20.042s7.076-20.042,15.772-20.042h7.56
	c-6.124,3.484-10.39,11.155-10.39,20.042s4.266,16.558,10.39,20.042H47.911z"/>
<g>
	<path d="M62.854,39.507c-8.697,0-15.773,8.991-15.773,20.042s7.076,20.042,15.773,20.042c8.697,0,15.772-8.991,15.772-20.042
		S71.551,39.507,62.854,39.507z M62.854,74.273c-2.475,0-4.889-1.283-6.796-3.611C53.733,67.824,52.4,63.774,52.4,59.55
		c0-4.225,1.333-8.275,3.658-11.112c1.907-2.329,4.321-3.611,6.796-3.611c5.667,0,10.454,6.743,10.454,14.724
		S68.521,74.273,62.854,74.273z"/>
	<path d="M58.505,64.665c0.075-0.245,0.145-0.492,0.208-0.742c0.042-0.164,0.082-0.328,0.119-0.493
		c0.058-0.257,0.107-0.517,0.153-0.779c0.028-0.162,0.059-0.324,0.083-0.488c0.042-0.287,0.073-0.578,0.101-0.87
		c0.014-0.143,0.033-0.283,0.043-0.426c0.032-0.436,0.051-0.875,0.051-1.317s-0.019-0.881-0.051-1.317
		c-0.01-0.143-0.029-0.283-0.043-0.425c-0.028-0.292-0.059-0.584-0.101-0.872c-0.024-0.163-0.054-0.324-0.083-0.485
		c-0.046-0.263-0.096-0.524-0.153-0.782c-0.037-0.165-0.077-0.328-0.118-0.49c-0.064-0.252-0.135-0.5-0.209-0.746
		c-0.048-0.156-0.095-0.313-0.147-0.466c-0.086-0.252-0.18-0.499-0.277-0.743c-0.054-0.136-0.104-0.273-0.162-0.406
		c-0.125-0.289-0.26-0.569-0.401-0.844c-0.04-0.079-0.076-0.162-0.117-0.239c-0.179-0.334-0.371-0.655-0.572-0.965
		c-1.555,2.394-2.429,5.519-2.429,8.78s0.874,6.386,2.429,8.78c0.202-0.31,0.394-0.63,0.572-0.964
		c0.042-0.078,0.078-0.162,0.118-0.242c0.14-0.274,0.275-0.553,0.399-0.841c0.058-0.134,0.109-0.273,0.163-0.409
		c0.097-0.244,0.19-0.489,0.276-0.74C58.409,64.979,58.457,64.822,58.505,64.665z"/>
	<path d="M62.854,46.826c-1.657,0-3.313,0.808-4.729,2.29c0.055,0.077,0.103,0.163,0.157,0.241c0.113,0.164,0.22,0.332,0.327,0.502
		c0.136,0.215,0.267,0.434,0.393,0.659c0.1,0.178,0.196,0.358,0.29,0.542c0.118,0.231,0.23,0.467,0.338,0.707
		c0.085,0.189,0.169,0.378,0.248,0.572c0.101,0.248,0.194,0.5,0.284,0.755c0.07,0.196,0.14,0.392,0.203,0.592
		c0.084,0.265,0.157,0.535,0.229,0.807c0.053,0.199,0.109,0.396,0.156,0.599c0.066,0.287,0.12,0.579,0.174,0.872
		c0.035,0.194,0.076,0.386,0.106,0.582c0.05,0.328,0.083,0.66,0.117,0.993c0.017,0.166,0.042,0.329,0.054,0.496
		c0.038,0.502,0.06,1.008,0.06,1.517s-0.021,1.015-0.06,1.517c-0.013,0.166-0.037,0.329-0.054,0.495
		c-0.033,0.333-0.067,0.666-0.117,0.994c-0.03,0.195-0.071,0.386-0.106,0.579c-0.054,0.293-0.107,0.586-0.174,0.875
		c-0.047,0.201-0.103,0.397-0.156,0.596c-0.072,0.272-0.146,0.543-0.23,0.81c-0.063,0.2-0.133,0.395-0.203,0.59
		c-0.091,0.255-0.184,0.509-0.285,0.757c-0.079,0.193-0.162,0.382-0.248,0.571c-0.108,0.24-0.22,0.476-0.338,0.708
		c-0.094,0.183-0.189,0.363-0.29,0.541c-0.125,0.225-0.257,0.443-0.393,0.659c-0.107,0.17-0.214,0.338-0.327,0.502
		c-0.054,0.079-0.102,0.164-0.157,0.241c1.416,1.482,3.072,2.29,4.729,2.29c4.583,0,8.454-5.827,8.454-12.723
		C71.308,52.653,67.437,46.826,62.854,46.826z"/>
</g>
</svg>
