<?xml version="1.0" encoding="utf-8"?>
<!-- Generator: Adobe Illustrator 16.0.4, SVG Export Plug-In . SVG Version: 6.00 Build 0)  -->
<!DOCTYPE svg PUBLIC "-//W3C//DTD SVG 1.1//EN" "http://www.w3.org/Graphics/SVG/1.1/DTD/svg11.dtd">
<svg version="1.1" id="Capa_1" xmlns="http://www.w3.org/2000/svg" xmlns:xlink="http://www.w3.org/1999/xlink" x="0px" y="0px"
	 width="64px" height="64px" viewBox="0 0 64 64" enable-background="new 0 0 64 64" xml:space="preserve">
<g>
	<path d="M30.52,22.193c-0.411-0.316-1.001-0.24-1.318,0.17l-6.887,8.932c-0.317,0.412-0.241,1.002,0.17,1.318l14.33,11.049
		c0.41,0.316,1,0.24,1.317-0.171l6.888-8.933c0.315-0.41,0.238-1-0.172-1.316L30.52,22.193z M37.926,34.17
		c0-0.001-0.311,0.4-0.918,0.803c-0.433,0.285-1.06,0.508-1.344,0.592c-0.227,0.067-0.454,0.136-0.518,0.146
		c-1.568,0.268-2.687,0.499-3.39,0.656c-0.506,0.111-0.915-0.21-0.933-0.729c-0.025-0.719-0.085-1.854-0.226-3.435
		c-0.012-0.139-0.017-0.273-0.019-0.404l0.03-0.564c0.058-0.509,0.189-0.944,0.329-1.285c0.195-0.48,0.699-1.185,1.16-1.424
		c0.716-0.369,1.614-0.316,2.296,0.209c0.441,0.341,0.715,0.82,0.804,1.33c0.089,0.512,0.329,0.698,0.848,0.653
		c0.517-0.043,1.05,0.099,1.491,0.439C38.477,31.882,38.65,33.23,37.926,34.17z"/>
	<path d="M56.343,10.574L49.52,5.313c-2.055-1.585-5.006-1.204-6.59,0.851l-11.805,15.31l14.268,11l11.803-15.309
		C58.779,15.11,58.396,12.158,56.343,10.574z M45.307,12.223c0.185-0.24,0.528-0.285,0.77-0.1c0.238,0.185,0.283,0.529,0.099,0.77
		c-0.185,0.239-0.528,0.284-0.769,0.099C45.165,12.807,45.12,12.462,45.307,12.223z M45.169,14.836
		c0.185-0.239,0.528-0.283,0.769-0.099c0.239,0.185,0.285,0.529,0.1,0.769c-0.184,0.239-0.528,0.284-0.768,0.099
		C45.029,15.42,44.984,15.077,45.169,14.836z M44.777,17.652c0.186-0.24,0.529-0.285,0.77-0.099c0.24,0.185,0.284,0.528,0.1,0.769
		c-0.185,0.239-0.528,0.284-0.77,0.1C44.639,18.237,44.594,17.892,44.777,17.652z M45.258,21.134
		c-0.186,0.242-0.529,0.286-0.771,0.101c-0.238-0.185-0.283-0.53-0.098-0.77c0.185-0.24,0.528-0.284,0.769-0.099
		C45.396,20.551,45.441,20.895,45.258,21.134z M43.413,10.763c0.185-0.24,0.53-0.285,0.769-0.1c0.24,0.185,0.284,0.529,0.101,0.77
		c-0.185,0.24-0.529,0.284-0.769,0.099C43.273,11.348,43.229,11.004,43.413,10.763z M43.121,13.259c0.186-0.24,0.529-0.285,0.77-0.1
		c0.24,0.185,0.285,0.529,0.101,0.77c-0.187,0.239-0.529,0.284-0.771,0.099C42.98,13.844,42.938,13.5,43.121,13.259z M42.639,16.001
		c0.185-0.239,0.528-0.283,0.769-0.099c0.239,0.186,0.284,0.529,0.1,0.769c-0.185,0.24-0.528,0.285-0.771,0.1
		C42.498,16.586,42.453,16.242,42.639,16.001z M40.794,11.465c0.187-0.24,0.531-0.284,0.771-0.1c0.24,0.185,0.285,0.529,0.1,0.77
		c-0.186,0.24-0.529,0.284-0.77,0.099S40.609,11.706,40.794,11.465z M36.096,20.254c-0.185,0.239-0.529,0.283-0.769,0.099
		c-0.239-0.185-0.285-0.529-0.101-0.769c0.186-0.241,0.529-0.285,0.771-0.1C36.236,19.668,36.281,20.012,36.096,20.254z
		 M38.113,21.809c-0.187,0.239-0.53,0.283-0.771,0.098c-0.239-0.185-0.284-0.529-0.1-0.768c0.187-0.241,0.528-0.285,0.771-0.101
		C38.253,21.224,38.298,21.567,38.113,21.809z M38.448,19.002c-0.187,0.238-0.53,0.282-0.771,0.098
		c-0.238-0.185-0.283-0.529-0.1-0.768c0.186-0.24,0.529-0.285,0.77-0.1S38.632,18.761,38.448,19.002z M38.652,16.041
		c-0.187,0.239-0.53,0.284-0.771,0.1c-0.238-0.184-0.283-0.53-0.099-0.769c0.185-0.24,0.528-0.284,0.769-0.1
		C38.791,15.458,38.836,15.801,38.652,16.041z M40.128,23.363c-0.185,0.24-0.528,0.283-0.769,0.098
		c-0.24-0.184-0.285-0.528-0.101-0.768c0.185-0.24,0.529-0.284,0.769-0.1C40.268,22.777,40.312,23.122,40.128,23.363z M40.587,20.65
		c-0.185,0.241-0.528,0.285-0.769,0.1s-0.285-0.529-0.102-0.77c0.186-0.239,0.53-0.284,0.77-0.1
		C40.727,20.066,40.771,20.41,40.587,20.65z M40.979,17.835c-0.187,0.239-0.53,0.284-0.771,0.1c-0.24-0.185-0.284-0.53-0.101-0.769
		c0.187-0.24,0.531-0.284,0.771-0.1C41.117,17.252,41.162,17.595,40.979,17.835z M40.689,15.192
		c-0.238-0.185-0.283-0.529-0.099-0.769c0.185-0.239,0.529-0.283,0.769-0.099c0.24,0.185,0.285,0.529,0.101,0.769
		C41.275,15.333,40.932,15.377,40.689,15.192z M42.145,24.918c-0.186,0.239-0.529,0.283-0.77,0.098
		c-0.24-0.184-0.285-0.529-0.1-0.768c0.186-0.24,0.529-0.284,0.77-0.1C42.284,24.333,42.33,24.677,42.145,24.918z M42.727,22.3
		c-0.185,0.24-0.529,0.284-0.769,0.099c-0.24-0.185-0.285-0.528-0.101-0.769c0.186-0.239,0.529-0.284,0.77-0.1
		C42.867,21.714,42.911,22.059,42.727,22.3z M42.348,19.585c-0.24-0.185-0.283-0.529-0.099-0.769c0.185-0.24,0.528-0.285,0.769-0.1
		c0.239,0.185,0.284,0.529,0.101,0.769C42.934,19.726,42.588,19.771,42.348,19.585z M44.161,26.472
		c-0.187,0.239-0.531,0.283-0.771,0.098c-0.24-0.185-0.283-0.529-0.1-0.768c0.186-0.24,0.529-0.285,0.77-0.101
		C44.3,25.886,44.346,26.23,44.161,26.472z M44.867,23.951c-0.186,0.239-0.529,0.283-0.77,0.099c-0.238-0.185-0.283-0.529-0.1-0.769
		c0.184-0.24,0.529-0.284,0.77-0.1C45.008,23.366,45.051,23.71,44.867,23.951z M46.175,28.025c-0.185,0.241-0.528,0.285-0.769,0.1
		c-0.239-0.185-0.284-0.529-0.1-0.769c0.187-0.241,0.529-0.285,0.77-0.101C46.316,27.441,46.359,27.784,46.175,28.025z M47.007,25.6
		c-0.185,0.24-0.528,0.284-0.769,0.099c-0.241-0.184-0.286-0.529-0.102-0.768c0.187-0.24,0.53-0.284,0.771-0.1
		C47.146,25.015,47.191,25.361,47.007,25.6z M47.396,22.785c-0.185,0.24-0.529,0.285-0.77,0.1c-0.24-0.185-0.283-0.528-0.098-0.769
		c0.185-0.239,0.527-0.284,0.768-0.1C47.537,22.202,47.581,22.545,47.396,22.785z M47.788,19.972
		c-0.187,0.239-0.529,0.284-0.771,0.1c-0.24-0.186-0.283-0.53-0.1-0.77c0.186-0.24,0.529-0.284,0.77-0.099
		S47.973,19.731,47.788,19.972z M48.178,17.156c-0.186,0.24-0.529,0.285-0.769,0.1c-0.241-0.185-0.286-0.529-0.101-0.769
		c0.186-0.24,0.529-0.284,0.771-0.1C48.318,16.572,48.363,16.915,48.178,17.156z M48.454,14.649
		c-0.185,0.24-0.529,0.284-0.769,0.099c-0.24-0.184-0.285-0.528-0.101-0.769c0.185-0.239,0.528-0.284,0.769-0.099
		C48.594,14.066,48.639,14.41,48.454,14.649z M48.621,12.157c-0.186,0.241-0.53,0.285-0.77,0.1c-0.24-0.185-0.283-0.528-0.1-0.77
		c0.186-0.24,0.527-0.284,0.77-0.099C48.76,11.573,48.805,11.917,48.621,12.157z M49.848,24.674c-0.186,0.24-0.531,0.285-0.771,0.1
		c-0.24-0.186-0.283-0.529-0.099-0.769c0.186-0.24,0.527-0.285,0.769-0.1C49.986,24.089,50.031,24.433,49.848,24.674z M50.02,21.694
		c-0.185,0.239-0.529,0.284-0.77,0.099s-0.284-0.529-0.1-0.77c0.185-0.24,0.529-0.284,0.77-0.099
		C50.159,21.11,50.204,21.453,50.02,21.694z M50.41,18.879c-0.186,0.239-0.529,0.283-0.77,0.098s-0.283-0.527-0.1-0.768
		c0.186-0.24,0.529-0.285,0.77-0.101C50.55,18.293,50.596,18.637,50.41,18.879z M50.702,16.384
		c-0.185,0.239-0.528,0.284-0.769,0.099s-0.285-0.529-0.101-0.769c0.185-0.24,0.53-0.284,0.771-0.1
		C50.843,15.799,50.887,16.143,50.702,16.384z M50.854,13.878c-0.186,0.241-0.53,0.285-0.77,0.101c-0.24-0.186-0.285-0.529-0.1-0.77
		c0.185-0.24,0.529-0.284,0.768-0.1C50.992,13.295,51.037,13.638,50.854,13.878z M51.156,11.144c-0.186,0.24-0.529,0.285-0.771,0.1
		c-0.239-0.184-0.284-0.529-0.099-0.769c0.186-0.24,0.527-0.284,0.77-0.099C51.296,10.56,51.34,10.905,51.156,11.144z
		 M52.736,20.672c-0.186,0.24-0.529,0.284-0.771,0.099c-0.239-0.185-0.284-0.529-0.1-0.768c0.186-0.241,0.53-0.285,0.771-0.101
		C52.876,20.087,52.921,20.431,52.736,20.672z M52.842,18.033c-0.186,0.24-0.529,0.284-0.77,0.099
		c-0.24-0.184-0.285-0.529-0.102-0.768c0.187-0.241,0.531-0.285,0.771-0.1C52.98,17.448,53.025,17.794,52.842,18.033z"/>
	<path d="M10.183,48.855c-1.584,2.056-1.203,5.006,0.852,6.592l6.823,5.261c2.056,1.585,5.006,1.204,6.59-0.851l11.804-15.31
		l-14.265-11L10.183,48.855z M20.371,40.422c0.186-0.24,0.529-0.285,0.77-0.102c0.24,0.187,0.285,0.529,0.099,0.771
		c-0.184,0.239-0.529,0.284-0.769,0.099C20.231,41.005,20.187,40.66,20.371,40.422z M15.406,48.657
		c-0.185,0.239-0.53,0.284-0.77,0.101c-0.24-0.186-0.284-0.529-0.099-0.77s0.528-0.284,0.769-0.1
		C15.546,48.074,15.591,48.417,15.406,48.657z M15.512,46.02c-0.186,0.24-0.531,0.285-0.77,0.1c-0.24-0.186-0.285-0.529-0.099-0.77
		c0.184-0.24,0.528-0.283,0.769-0.1C15.652,45.436,15.697,45.779,15.512,46.02z M17.091,55.546c-0.185,0.24-0.529,0.284-0.769,0.101
		c-0.24-0.187-0.284-0.529-0.1-0.77c0.185-0.24,0.53-0.285,0.77-0.1C17.232,54.962,17.276,55.307,17.091,55.546z M17.394,52.812
		c-0.185,0.24-0.529,0.285-0.769,0.099c-0.24-0.185-0.285-0.528-0.1-0.769c0.185-0.238,0.529-0.285,0.77-0.1
		C17.534,52.229,17.579,52.572,17.394,52.812z M17.545,50.307c-0.185,0.24-0.529,0.285-0.769,0.101
		c-0.24-0.185-0.284-0.53-0.1-0.771c0.185-0.238,0.529-0.283,0.769-0.099C17.685,49.723,17.73,50.066,17.545,50.307z M17.838,47.812
		c-0.186,0.24-0.53,0.285-0.77,0.1c-0.24-0.186-0.285-0.529-0.099-0.77c0.184-0.24,0.529-0.283,0.769-0.1
		C17.978,47.229,18.023,47.57,17.838,47.812z M18.226,44.998c-0.184,0.24-0.528,0.284-0.768,0.1c-0.24-0.186-0.285-0.529-0.1-0.77
		c0.185-0.239,0.529-0.285,0.769-0.1C18.367,44.413,18.411,44.757,18.226,44.998z M18.4,42.018
		c-0.185,0.238-0.529,0.282-0.769,0.099c-0.24-0.187-0.284-0.53-0.1-0.769c0.185-0.24,0.529-0.285,0.77-0.101
		C18.541,41.432,18.585,41.775,18.4,42.018z M19.627,54.534c-0.186,0.239-0.529,0.284-0.769,0.1c-0.24-0.186-0.285-0.528-0.1-0.771
		c0.185-0.238,0.53-0.283,0.77-0.1C19.768,53.95,19.812,54.293,19.627,54.534z M19.794,52.041c-0.185,0.24-0.53,0.285-0.77,0.102
		c-0.24-0.187-0.284-0.531-0.099-0.771c0.185-0.24,0.529-0.284,0.769-0.101C19.934,51.457,19.979,51.801,19.794,52.041z
		 M20.07,49.534c-0.185,0.239-0.53,0.284-0.769,0.1c-0.24-0.185-0.285-0.528-0.1-0.771c0.185-0.238,0.529-0.283,0.769-0.098
		C20.209,48.95,20.254,49.294,20.07,49.534z M20.46,46.719c-0.185,0.24-0.529,0.285-0.769,0.1c-0.24-0.186-0.285-0.528-0.1-0.77
		c0.185-0.238,0.53-0.283,0.77-0.1C20.601,46.134,20.645,46.479,20.46,46.719z M20.849,43.906c-0.184,0.24-0.528,0.283-0.768,0.098
		c-0.24-0.186-0.285-0.527-0.1-0.768c0.184-0.239,0.529-0.284,0.769-0.101C20.989,43.32,21.034,43.666,20.849,43.906z
		 M22.073,53.797c-0.186,0.241-0.529,0.287-0.77,0.102c-0.24-0.187-0.284-0.529-0.099-0.771c0.185-0.239,0.529-0.284,0.769-0.101
		C22.214,53.214,22.257,53.557,22.073,53.797z M22.21,51.184c-0.186,0.241-0.529,0.285-0.769,0.101
		c-0.24-0.185-0.285-0.529-0.1-0.771c0.185-0.24,0.529-0.283,0.769-0.099C22.35,50.6,22.394,50.943,22.21,51.184z M22.599,48.37
		c-0.185,0.239-0.528,0.284-0.768,0.099c-0.24-0.185-0.285-0.529-0.1-0.769c0.185-0.24,0.53-0.285,0.769-0.099
		C22.74,47.786,22.784,48.13,22.599,48.37z M22.121,44.886c0.185-0.239,0.529-0.284,0.77-0.1c0.24,0.185,0.284,0.528,0.099,0.771
		c-0.185,0.238-0.529,0.282-0.769,0.098C21.981,45.469,21.937,45.125,22.121,44.886z M23.965,55.257
		c-0.185,0.241-0.53,0.285-0.77,0.101c-0.24-0.185-0.284-0.53-0.1-0.771c0.185-0.239,0.53-0.284,0.77-0.099
		C24.105,54.673,24.15,55.018,23.965,55.257z M24.257,52.762c-0.186,0.241-0.53,0.285-0.77,0.1c-0.24-0.186-0.285-0.528-0.099-0.771
		c0.185-0.239,0.529-0.282,0.769-0.099C24.397,52.178,24.442,52.521,24.257,52.762z M24.741,50.02
		c-0.185,0.24-0.53,0.285-0.77,0.101c-0.241-0.187-0.284-0.53-0.099-0.769c0.185-0.24,0.528-0.287,0.769-0.102
		C24.881,49.436,24.925,49.779,24.741,50.02z M26.583,54.555c-0.186,0.242-0.53,0.286-0.77,0.1c-0.24-0.184-0.284-0.527-0.099-0.769
		c0.185-0.239,0.529-0.284,0.769-0.1C26.723,53.971,26.768,54.314,26.583,54.555z M31.283,45.77c0.185-0.24,0.528-0.285,0.769-0.101
		c0.24,0.185,0.284,0.528,0.099,0.769s-0.529,0.285-0.769,0.101C31.141,46.352,31.097,46.009,31.283,45.77z M29.265,44.213
		c0.186-0.238,0.53-0.283,0.77-0.099c0.24,0.185,0.285,0.528,0.1,0.769c-0.186,0.241-0.53,0.285-0.77,0.1
		C29.125,44.799,29.08,44.454,29.265,44.213z M28.93,47.021c0.185-0.24,0.53-0.285,0.77-0.101c0.24,0.185,0.285,0.529,0.1,0.769
		c-0.185,0.242-0.53,0.285-0.77,0.101C28.79,47.605,28.746,47.26,28.93,47.021z M28.727,49.979c0.185-0.238,0.529-0.285,0.769-0.101
		c0.24,0.187,0.284,0.53,0.1,0.771c-0.185,0.24-0.53,0.285-0.769,0.1C28.587,50.562,28.543,50.219,28.727,49.979z M27.251,42.66
		c0.185-0.241,0.529-0.285,0.769-0.1c0.24,0.186,0.284,0.528,0.1,0.769c-0.186,0.241-0.529,0.285-0.769,0.101
		C27.111,43.245,27.066,42.9,27.251,42.66z M26.791,45.373c0.186-0.242,0.529-0.287,0.769-0.102c0.24,0.186,0.285,0.528,0.1,0.77
		c-0.185,0.238-0.529,0.284-0.77,0.1C26.65,45.956,26.607,45.611,26.791,45.373z M26.4,48.186c0.185-0.24,0.53-0.285,0.77-0.101
		c0.24,0.185,0.284,0.528,0.1,0.771c-0.186,0.24-0.53,0.283-0.77,0.099C26.261,48.77,26.215,48.425,26.4,48.186z M26.688,50.827
		c0.24,0.187,0.284,0.53,0.1,0.771c-0.186,0.24-0.53,0.284-0.77,0.1c-0.24-0.186-0.285-0.529-0.1-0.771
		C26.103,50.688,26.448,50.643,26.688,50.827z M25.234,41.104c0.185-0.24,0.529-0.283,0.768-0.099c0.24,0.185,0.285,0.528,0.1,0.769
		c-0.185,0.242-0.528,0.285-0.769,0.101C25.093,41.689,25.048,41.346,25.234,41.104z M24.651,43.721
		c0.185-0.24,0.529-0.283,0.769-0.1c0.24,0.186,0.285,0.529,0.1,0.77c-0.185,0.238-0.529,0.283-0.769,0.1
		C24.511,44.305,24.467,43.96,24.651,43.721z M25.031,46.438c0.24,0.185,0.284,0.528,0.099,0.769
		c-0.185,0.239-0.528,0.284-0.768,0.101c-0.24-0.186-0.285-0.529-0.1-0.77C24.446,46.296,24.791,46.251,25.031,46.438z
		 M23.218,39.549c0.185-0.24,0.529-0.283,0.769-0.099c0.24,0.185,0.285,0.528,0.1,0.769c-0.186,0.241-0.529,0.286-0.769,0.1
		C23.078,40.134,23.033,39.79,23.218,39.549z M22.511,42.072c0.185-0.241,0.53-0.285,0.769-0.1c0.24,0.185,0.285,0.528,0.1,0.77
		c-0.185,0.238-0.529,0.283-0.769,0.099C22.371,42.656,22.327,42.312,22.511,42.072z M22.072,38.665
		c-0.186,0.239-0.529,0.285-0.769,0.101c-0.241-0.186-0.286-0.529-0.1-0.771c0.185-0.239,0.529-0.283,0.769-0.099
		C22.212,38.082,22.257,38.425,22.072,38.665z"/>
</g>
</svg>
