<?xml version="1.0" encoding="iso-8859-1"?>
<!-- Generator: Adobe Illustrator 17.0.0, SVG Export Plug-In . SVG Version: 6.00 Build 0)  -->
<!DOCTYPE svg PUBLIC "-//W3C//DTD SVG 1.1//EN" "http://www.w3.org/Graphics/SVG/1.1/DTD/svg11.dtd">
<svg version="1.1" id="Capa_1" xmlns="http://www.w3.org/2000/svg" xmlns:xlink="http://www.w3.org/1999/xlink" x="0px" y="0px"
	 width="64px" height="64px" viewBox="0 0 64 64" style="enable-background:new 0 0 64 64;" xml:space="preserve">
<g>
	<path d="M5.249,50.931c0,0,0.6,0.625,0.952,1.226c0.595,0.118,1.295,0.225,2.099,0.309l1.067-0.985c0,0,0.75,0.568,1.186,1.13
		c0.594,0.017,1.219,0.022,1.894,0.006l1.23-1.136c0,0,0.651,0.492,1.093,1.013c0.456-0.035,0.921-0.076,1.407-0.128l0.786-0.935
		c0,0,0.474,0.273,0.923,0.625c0.459-0.308,1.596-1.179,2.163-2.597c0.653-1.632,9.724,1.539,14.88,2.294l0.784-0.933
		c0,0,0.937,0.539,1.422,1.08c0.423-0.013,0.9-0.045,1.431-0.097l0.826-0.983c0,0,0.59,0.339,1.076,0.749
		c0.484-0.069,0.988-0.147,1.512-0.234l0.895-1.066c0,0,0.563,0.323,1.043,0.721c0.687-0.13,1.391-0.271,2.104-0.42l0.782-0.931
		c0,0,0.43,0.247,0.859,0.574c0.715-0.161,1.429-0.329,2.136-0.503l0.462-0.865c0,0,0.581,0.189,1.12,0.465
		c0.652-0.171,1.29-0.345,1.908-0.521l0.431-0.806c0,0,0.481,0.156,0.973,0.391c0.547-0.168,1.069-0.336,1.561-0.503l0.663-1.239
		c0,0,0.675,0.219,1.243,0.531c0.206-0.085,0.4-0.169,0.583-0.252l0.671-1.254c0,0,0.416,0.136,0.87,0.344
		c0.048-0.045,0.101-0.09,0.138-0.134c0,0,0.617-1.959-0.098-3.814c-1.48,1.773-4.933,3.188-6.621,3.799
		c-2.775,1.005-8.559,2.69-16.113,2.69c-3.421,0-6.784-0.353-9.995-1.051c-6.843-1.486-12.021-1.714-15.802-1.88
		c-3.601-0.159-6.333-0.286-7.634-1.749c-0.358,0.906-0.705,2.946-0.705,7.465c0,0,0.246,0.129,0.747,0.304L5.249,50.931z"/>
	<path d="M4.315,41.233c0,0.895,0.222,1.521,0.641,1.986c2.054,2.278,9.247,0.341,22.85,3.294c3.334,0.724,6.635,1.028,9.783,1.028
		c11.345,0,20.674-3.952,22.21-6.453c0.132-0.214,0.213-0.419,0.226-0.609c0.216-3.017-2.802-3.879-2.802-3.879H46.125
		c-0.216-1.401-4.741-2.263-4.741-2.263c0.431-5.065-9.698-9.698-9.698-9.698c-0.539-3.448-3.233-6.681-3.233-6.681v-6.25
		C28.31,7.082,26.759,5.84,24.325,5.84c-1.252,0-2.738,0.329-4.385,0.695c-4.849,1.078-7.974,1.185-11.53,1.293
		c-3.556,0.108-2.263,2.694-2.263,2.694s3.017,14.224,0.431,19.396C3.992,35.091,4.315,35.953,4.315,41.233z"/>
</g>
</svg>
