<?xml version="1.0" encoding="utf-8"?>
<!-- Generator: Adobe Illustrator 15.0.0, SVG Export Plug-In . SVG Version: 6.00 Build 0)  -->
<!DOCTYPE svg PUBLIC "-//W3C//DTD SVG 1.1//EN" "http://www.w3.org/Graphics/SVG/1.1/DTD/svg11.dtd">
<svg version="1.1" id="Layer_1" xmlns="http://www.w3.org/2000/svg" xmlns:xlink="http://www.w3.org/1999/xlink" x="0px" y="0px"
	 width="64px" height="64px" viewBox="0 0 64 64" enable-background="new 0 0 64 64" xml:space="preserve">
<g>
	<path fill="#231F20" d="M38.54,8.075c0.909-0.258,1.556-1.102,1.556-2.058V5.729c0-1.179-0.959-2.138-2.137-2.138H26.04
		c-1.178,0-2.137,0.959-2.137,2.138v0.288c0,1.011,0.718,1.884,1.693,2.092c-4.288,11.687-4.288,12.27-4.288,12.521V58.08
		c0,1.284,1.044,2.329,2.329,2.329h16.725c1.284,0,2.329-1.045,2.329-2.329V20.629C42.691,20.381,42.691,19.798,38.54,8.075z"/>
</g>
</svg>
