<?xml version="1.0" encoding="utf-8"?>
<!-- Generator: Adobe Illustrator 16.0.0, SVG Export Plug-In . SVG Version: 6.00 Build 0)  -->
<!DOCTYPE svg PUBLIC "-//W3C//DTD SVG 1.1//EN" "http://www.w3.org/Graphics/SVG/1.1/DTD/svg11.dtd">
<svg version="1.1" id="Layer_1" xmlns="http://www.w3.org/2000/svg" xmlns:xlink="http://www.w3.org/1999/xlink" x="0px" y="0px"
	 width="100px" height="100px" viewBox="0 0 100 100" enable-background="new 0 0 100 100" xml:space="preserve">
<path d="M25.827,61.231c0.457,3.951,2.48,9.535,9.528,13.698c3.466,2.048,6.893,3.087,10.184,3.087c4.828,0,8.57-2.193,11.304-3.795
	c2.728-1.599,4.334-2.46,6.136-2.13c2.767,0.519,5.244,1.893,7.363,4.083l3.557,3.677l7.354-7.115l-3.559-3.676
	c-3.572-3.692-8.009-6.122-12.83-7.024c-0.898-0.168-1.805-0.254-2.693-0.254c-4.333,0-7.751,2.001-10.502,3.612
	c-2.378,1.394-4.096,2.4-6.131,2.4c-1.465,0-3.047-0.531-4.978-1.672c-3.717-2.198-4.388-4.511-4.568-6.06
	c-0.878-7.516,8.226-18.121,11.832-21.599l2.042,2.042l6.215-6.215l-2.119-2.119l5.571-1.67l-0.948-3.169l-6.139,1.841l4.611-8.095
	l-2.872-1.638l-3.569,6.262v-5.51h-3.307v5.326l-2.135-2.135L38.959,29.6l1.629,1.629C38.236,33.518,24.268,47.747,25.827,61.231z"
	/>
</svg>
