<?xml version="1.0" encoding="utf-8"?>
<!-- Generator: Adobe Illustrator 15.0.0, SVG Export Plug-In . SVG Version: 6.00 Build 0)  -->
<!DOCTYPE svg PUBLIC "-//W3C//DTD SVG 1.1//EN" "http://www.w3.org/Graphics/SVG/1.1/DTD/svg11.dtd">
<svg version="1.1" id="Layer_1" xmlns="http://www.w3.org/2000/svg" xmlns:xlink="http://www.w3.org/1999/xlink" x="0px" y="0px"
	 width="64px" height="64px" viewBox="0 0 64 64" enable-background="new 0 0 64 64" xml:space="preserve">
<g>
	<g>
		<path d="M61.167,2.833H26.335L17.617,22.9l0.441,0.367c1.073,0.878,1.688,2.182,1.688,3.571c0,2.547-2.074,4.626-4.624,4.626
			c-2.548,0-4.624-2.079-4.624-4.626c0-2.285,1.706-4.25,3.967-4.572l0.42-0.062L23.3,2.833H2.833v58.334h58.334v-9.129H43.522
			l-0.226,0.346c-0.809,1.252-2.18,1.996-3.664,1.996c-2.409,0-4.367-1.96-4.367-4.367s1.958-4.37,4.367-4.37
			c1.886,0,3.551,1.206,4.144,2.995l0.173,0.521h17.218V17.563H41.819v9.429l0.488,0.183c1.746,0.662,2.92,2.359,2.92,4.219
			c0,2.494-2.025,4.516-4.514,4.516c-2.489,0-4.515-2.022-4.515-4.516c0-1.677,0.926-3.208,2.416-3.992l0.403-0.214V14.763h22.148
			V2.833z"/>
	</g>
	<g>
		<path d="M12.807,26.725c0,1.264,1.024,2.29,2.288,2.29c1.26,0,2.286-1.026,2.286-2.29c0-1.258-1.026-2.286-2.286-2.286
			C13.831,24.439,12.807,25.467,12.807,26.725z"/>
	</g>
	<g>
		<circle cx="40.464" cy="31.341" r="2.288"/>
	</g>
	<g>
		<circle cx="39.585" cy="50.013" r="2.287"/>
	</g>
</g>
</svg>
