<?xml version="1.0" encoding="utf-8"?>
<!-- Generator: Adobe Illustrator 16.0.4, SVG Export Plug-In . SVG Version: 6.00 Build 0)  -->
<!DOCTYPE svg PUBLIC "-//W3C//DTD SVG 1.1//EN" "http://www.w3.org/Graphics/SVG/1.1/DTD/svg11.dtd">
<svg version="1.1" id="Capa_1" xmlns="http://www.w3.org/2000/svg" xmlns:xlink="http://www.w3.org/1999/xlink" x="0px" y="0px"
	 width="64px" height="64px" viewBox="0 0 64 64" enable-background="new 0 0 64 64" xml:space="preserve">
<g>
	<path d="M48.003,30.079l-5.604-11.211c-0.248-0.494-0.896-0.895-1.447-0.895h-8.333h-1.834H22.45c-0.553,0-1.2,0.4-1.447,0.895
		l-5.605,11.211c-0.247,0.494-0.447,1.342-0.447,1.895v27.833c0,0.553,0.447,1,1,1h15.5h0.5h15.5c0.553,0,1-0.447,1-1V31.974
		C48.45,31.421,48.25,30.573,48.003,30.079z M40.473,42.918c-0.381,1.111-1.195,2.377-1.588,2.922
		c-0.31,0.434-0.623,0.869-0.723,0.979c-2.438,2.648-4.116,4.613-5.157,5.869c-0.752,0.901-1.932,0.891-2.681-0.014
		c-1.041-1.251-2.721-3.201-5.161-5.833c-0.215-0.231-0.411-0.464-0.593-0.698l-0.729-1.053c-0.601-0.99-0.968-1.951-1.191-2.754
		c-0.315-1.132-0.391-3.09,0.105-4.154c0.771-1.656,2.449-2.807,4.398-2.809c1.264-0.004,2.414,0.479,3.28,1.268
		c0.868,0.793,1.558,0.793,2.422-0.005c0.865-0.792,2.017-1.276,3.277-1.28c2.684-0.006,4.865,2.166,4.87,4.853
		C41.003,40.208,41.003,41.357,40.473,42.918z"/>
	<path d="M35.479,43.13h-2.279c-0.151,0-0.272-0.121-0.272-0.272v-2.278c0-0.149-0.122-0.272-0.272-0.272h-1.907
		c-0.15,0-0.273,0.123-0.273,0.272v2.278c0,0.15-0.121,0.272-0.272,0.272h-2.279c-0.15,0-0.273,0.122-0.273,0.272v1.908
		c0,0.149,0.122,0.271,0.273,0.271h2.279c0.151,0,0.272,0.122,0.272,0.271v2.279c0,0.15,0.122,0.271,0.273,0.271h1.907
		c0.15,0,0.272-0.121,0.272-0.271v-2.279c0-0.149,0.121-0.271,0.272-0.271h2.279c0.149,0,0.272-0.122,0.272-0.271v-1.908
		C35.751,43.252,35.629,43.13,35.479,43.13z"/>
	<path d="M19.533,14.328h24.334c0.553,0,1-0.447,1-1V3.161c0-0.553-0.447-1-1-1H19.533c-0.553,0-1,0.447-1,1v10.167
		C18.533,13.881,18.98,14.328,19.533,14.328z"/>
</g>
</svg>
