<?xml version="1.0" encoding="utf-8"?>
<!-- Generator: Adobe Illustrator 15.0.0, SVG Export Plug-In . SVG Version: 6.00 Build 0)  -->
<!DOCTYPE svg PUBLIC "-//W3C//DTD SVG 1.1//EN" "http://www.w3.org/Graphics/SVG/1.1/DTD/svg11.dtd">
<svg version="1.1" id="Layer_1" xmlns="http://www.w3.org/2000/svg" xmlns:xlink="http://www.w3.org/1999/xlink" x="0px" y="0px"
	 width="26px" height="26px" viewBox="0 0 26 26" enable-background="new 0 0 26 26" xml:space="preserve">
<rect fill="none" width="26" height="26"/>
<path fill="#000000" d="M18.857,6H17.98C17.986,6.052,18,6.099,18,6.154v3.692C18,11.585,16.59,13,14.857,13h-1.365
	c0.371,0.184,0.633,0.558,0.633,1c0,0.621-0.504,1.125-1.125,1.125S11.875,14.621,11.875,14c0-0.442,0.262-0.816,0.633-1h-1.365
	C9.41,13,8,11.585,8,9.846V6.154C8,6.099,8.013,6.052,8.019,6H7.143C5.959,6,5,6.964,5,8.154v15.692C5,25.035,5.959,26,7.143,26
	h11.715C20.041,26,21,25.035,21,23.846V8.154C21,6.964,20.041,6,18.857,6z"/>
<g>
	<path fill="#000000" d="M17,9.846C17,11.036,16.041,12,14.857,12h-3.715C9.959,12,9,11.036,9,9.846V6.154c0-1.189,8-1.189,8,0
		V9.846z"/>
</g>
<line fill="none" stroke="#000000" stroke-width="2" stroke-linecap="round" stroke-linejoin="round" stroke-miterlimit="10" x1="7" y1="6" x2="7" y2="1"/>
<path fill="#000000" d="M4.754,10.302c-0.032,0.704-0.17,0.833-0.689,0.898l-0.846-0.012c-0.323,0.05-1.181,0.207-0.966,1.962
	c0.122,1,0.201,1.649,0.317,2.598c0.345,2.832,2.096,1.908,2.565,2.973l0.191,0.716c0.209,1.225-0.252,1.339-0.739,1.417
	c-0.385,0.063-0.927-0.111-1.81-0.889c-1.133-0.994-2.132-2.834-2.511-5.32c-0.381-2.485-0.081-4.333,0.891-5.485
	c0.808-0.959,1.765-1.059,2.1-1.081l0.704-0.094C4.4,7.931,4.786,7.914,4.867,8.58L4.754,10.302z"/>
<path fill="#000000" d="M19,3.981c0-1.063,0.545-2.964,3.012-2.964S26,2.959,26,11c0,8-5.293,13.85-5.293,13.85
	s3.641-4.627,3.641-14.814c0-5.163-0.77-7.067-1.895-7.067c-1.078,0-1.482,0.813-1.482,2.008C20.225,4.185,19,3.981,19,3.981z"/>
</svg>
