<?xml version="1.0" encoding="utf-8"?>
<!-- Generator: Adobe Illustrator 16.0.0, SVG Export Plug-In . SVG Version: 6.00 Build 0)  -->
<!DOCTYPE svg PUBLIC "-//W3C//DTD SVG 1.1//EN" "http://www.w3.org/Graphics/SVG/1.1/DTD/svg11.dtd">
<svg version="1.1" id="Layer_1" xmlns="http://www.w3.org/2000/svg" xmlns:xlink="http://www.w3.org/1999/xlink" x="0px" y="0px"
	 width="100px" height="100px" viewBox="0 0 100 100" enable-background="new 0 0 100 100" xml:space="preserve">
<g>
	<path d="M26.729,22.616l6.174,4.597c-0.346,1.227-0.563,2.498-0.637,3.802c-0.025,0.06-0.04,0.126-0.04,0.196v0.103l-7.113-2.561
		C25.393,26.611,25.94,24.554,26.729,22.616z"/>
	<path d="M29.93,16.957l4.778,6.019c-0.604,1.018-1.101,2.099-1.49,3.225l-6.083-4.529C27.896,19.995,28.834,18.413,29.93,16.957z"
		/>
	<path d="M59.41,8.753l-4.6,6.177c-1.1-0.31-2.237-0.516-3.412-0.609c-0.002-0.001-0.002-0.004-0.004-0.005
		c-0.168-0.126-0.39-0.127-0.559-0.024c-0.046-0.002-0.091-0.005-0.137-0.007l2.574-7.149C55.415,7.417,57.473,7.966,59.41,8.753z"
		/>
	<path d="M65.068,11.954l-6.033,4.79c-0.574-0.341-1.165-0.654-1.779-0.93c-0.039-0.027-0.08-0.045-0.124-0.06
		c-0.428-0.188-0.866-0.352-1.313-0.507l4.535-6.089C62.029,9.922,63.611,10.858,65.068,11.954z"/>
	<path d="M73.116,22.222l-7.623,1.116c-0.687-1.218-1.519-2.341-2.46-3.36l6.871-3.234C71.191,18.418,72.277,20.254,73.116,22.222z"
		/>
	<path d="M74.854,28.488l-7.655-0.88c-0.3-1.161-0.71-2.274-1.226-3.331l7.521-1.101C74.134,24.869,74.596,26.646,74.854,28.488z"/>
	<path d="M73.268,41.429l-6.156-4.583c0.371-1.325,0.589-2.705,0.643-4.118l7.133,2.568C74.605,37.408,74.061,39.468,73.268,41.429z
		"/>
	<path d="M70.068,47.091l-4.771-6.013c0.605-1.019,1.107-2.095,1.499-3.22l6.065,4.518C72.107,44.04,71.172,45.621,70.068,47.091z"
		/>
	<path d="M63.938,41.358c-0.104,0.154-0.211,0.307-0.319,0.458c-0.095,0.129-0.188,0.257-0.286,0.384
		c-0.114,0.148-0.23,0.294-0.352,0.438c-0.088,0.107-0.176,0.213-0.268,0.318l-3.271-1.284V38.69l5.035,1.812
		c-0.09,0.153-0.182,0.305-0.275,0.454C64.113,41.092,64.025,41.225,63.938,41.358z"/>
	<path d="M53.54,56.861l0.877-7.634c1.146-0.297,2.26-0.709,3.331-1.231l1.104,7.525c-0.029,0.011-0.056,0.024-0.082,0.035
		C57.07,56.189,55.32,56.607,53.54,56.861z"/>
	<path d="M40.594,55.294l4.597-6.174c1.316,0.371,2.692,0.589,4.112,0.644l-2.567,7.13C44.618,56.619,42.556,56.087,40.594,55.294z"
		/>
	<path d="M34.927,52.1l6.04-4.793c1.012,0.601,2.086,1.103,3.214,1.496l-4.525,6.078C37.993,54.126,36.4,53.209,34.927,52.1z"/>
	<path d="M33.226,50.693v-3.754l4.479-2.108c0.729,0.701,1.511,1.35,2.352,1.92l-5.921,4.7
		C33.831,51.201,33.521,50.958,33.226,50.693z"/>
	<polygon points="32.226,75.008 24.893,74.165 24.893,72.171 32.226,73.014 	"/>
	<polygon points="24.893,71.165 24.893,69.171 32.226,70.014 32.226,72.008 	"/>
	<polygon points="24.893,68.165 24.893,66.171 32.226,67.014 32.226,69.008 	"/>
	<polygon points="24.893,65.165 24.893,63.171 32.226,64.014 32.226,66.008 	"/>
	<polygon points="24.893,62.165 24.893,60.171 32.226,61.014 32.226,63.008 	"/>
	<polygon points="24.893,59.165 24.893,57.171 32.226,58.014 32.226,60.008 	"/>
	<polygon points="24.893,56.165 24.893,54.171 32.226,55.014 32.226,57.008 	"/>
	<polygon points="32.226,54.008 24.893,53.165 24.893,51.171 32.226,52.014 	"/>
	<polygon points="24.893,50.165 24.893,48.171 32.226,49.014 32.226,50.927 32.226,51.008 	"/>
	<polygon points="32.226,45.008 24.893,44.165 24.893,42.171 32.226,43.014 	"/>
	<polygon points="32.226,46.014 32.226,48.008 24.893,47.165 24.893,45.171 	"/>
	<polygon points="32.226,42.008 24.893,41.165 24.893,39.171 32.226,40.014 	"/>
	<polygon points="24.893,75.171 32.226,76.014 32.226,78.008 24.893,77.165 	"/>
	<path d="M33.226,40.9l1.283-0.188c0.686,1.218,1.517,2.341,2.46,3.36l-3.743,1.761V40.9z"/>
	<path d="M33.226,39.889v-2.04c0.23,0.66,0.499,1.301,0.802,1.923L33.226,39.889z"/>
	<polygon points="32.226,39.008 24.893,38.165 24.893,35.532 32.226,36.375 	"/>
	<polygon points="24.893,78.171 32.226,79.014 32.226,81.008 24.893,80.165 	"/>
	<path d="M42.091,17.227c0.011-0.006,0.021-0.009,0.033-0.016c0.431-0.229,0.877-0.436,1.331-0.629l-0.836,2.136
		c-0.759,0.188-1.491,0.429-2.192,0.737l0.149-1.299C41.063,17.825,41.563,17.508,42.091,17.227z"/>
	<path d="M56.002,16.379l-4.095,3.366c-0.978-0.488-2.016-0.865-3.106-1.107l2.475-3.323C52.932,15.44,54.516,15.806,56.002,16.379z
		"/>
	<path d="M65.188,24.945l-7.136,0.993c-0.558-1.139-1.268-2.185-2.106-3.118l5.729-2.817C63.128,21.415,64.316,23.089,65.188,24.945
		z"/>
	<path d="M65.805,37.656c-0.064,0.18-0.13,0.361-0.199,0.539c-0.058,0.145-0.119,0.288-0.182,0.431
		c-0.072,0.174-0.148,0.347-0.229,0.518c-0.067,0.143-0.139,0.283-0.209,0.424c-0.008,0.015-0.018,0.03-0.024,0.046l-5.517-1.986
		c-0.002,0-0.002,0-0.002,0v-3.102l6.605,2.379c-0.029,0.104-0.06,0.209-0.093,0.312C65.909,37.365,65.855,37.51,65.805,37.656z"/>
	<path d="M61.959,43.772c-0.133,0.134-0.271,0.264-0.407,0.394c-0.116,0.111-0.233,0.223-0.354,0.331
		c-0.141,0.126-0.288,0.248-0.434,0.369c-0.127,0.104-0.25,0.21-0.381,0.311c-0.148,0.118-0.306,0.231-0.461,0.344
		c-0.133,0.097-0.263,0.196-0.398,0.29c-0.025,0.018-0.055,0.034-0.08,0.052v-3.118l2.543,0.999
		C61.979,43.753,61.968,43.763,61.959,43.772z"/>
	<path d="M66.775,32.025c0,0.359-0.012,0.717-0.033,1.072c-0.008,0.12-0.023,0.237-0.033,0.356
		c-0.021,0.234-0.038,0.469-0.066,0.701c-0.02,0.14-0.043,0.277-0.064,0.416c-0.032,0.209-0.063,0.419-0.102,0.626
		c-0.029,0.146-0.063,0.289-0.096,0.433c-0.021,0.103-0.046,0.205-0.068,0.308l-6.867-2.472c-0.002,0-0.002,0-0.002,0v-1.44
		c0-0.025-0.012-0.046-0.016-0.07c0.006-0.024,0.016-0.045,0.016-0.07c0-0.34-0.026-0.673-0.051-1.006l7.067,0.812
		c0.021,0.002,0.039,0.003,0.06,0.003c0.086,0,0.166-0.029,0.236-0.069C66.759,31.759,66.775,31.89,66.775,32.025z"/>
	<path d="M66.711,30.741c-0.044-0.019-0.087-0.039-0.137-0.044l-7.301-0.839c-0.155-1.033-0.422-2.028-0.797-2.971l7.123-0.991
		C66.2,27.417,66.581,29.043,66.711,30.741z"/>
	<path d="M61.516,55.456c0.449-0.222,0.887-0.465,1.322-0.711l3.84,0.44c0.021,0.002,0.039,0.004,0.059,0.004
		c0.015,0,0.027-0.006,0.041-0.008v2.008l-7.295-0.838c0.658-0.257,1.304-0.537,1.935-0.845
		C61.449,55.493,61.48,55.473,61.516,55.456z"/>
	<path d="M66.775,87.191l-7.334-0.842v-1.994l7.235,0.83c0.021,0.002,0.039,0.004,0.058,0.004c0.016,0,0.027-0.006,0.041-0.008
		V87.191L66.775,87.191z"/>
	<path d="M66.775,84.191l-7.334-0.842v-1.994l7.235,0.83c0.021,0.002,0.039,0.004,0.058,0.004c0.016,0,0.027-0.006,0.041-0.008
		V84.191L66.775,84.191z"/>
	<path d="M66.775,81.191l-7.334-0.842v-1.994l7.235,0.83c0.021,0.002,0.039,0.004,0.058,0.004c0.016,0,0.027-0.006,0.041-0.008
		V81.191L66.775,81.191z"/>
	<path d="M66.775,78.191l-7.334-0.842v-1.994l7.235,0.83c0.021,0.002,0.039,0.004,0.058,0.004c0.016,0,0.027-0.006,0.041-0.008
		V78.191L66.775,78.191z"/>
	<path d="M66.775,75.191l-7.334-0.842v-1.994l7.235,0.83c0.021,0.002,0.039,0.004,0.058,0.004c0.016,0,0.027-0.006,0.041-0.008
		V75.191L66.775,75.191z"/>
	<path d="M66.775,72.191l-7.334-0.842v-1.994l7.235,0.83c0.021,0.002,0.039,0.004,0.058,0.004c0.016,0,0.027-0.006,0.041-0.008
		V72.191L66.775,72.191z"/>
	<path d="M66.775,69.191l-7.334-0.842v-1.994l7.235,0.83c0.021,0.002,0.039,0.004,0.058,0.004c0.016,0,0.027-0.006,0.041-0.008
		V69.191L66.775,69.191z"/>
	<path d="M66.775,66.191l-7.334-0.842v-1.994l7.235,0.83c0.021,0.002,0.039,0.004,0.058,0.004c0.016,0,0.027-0.006,0.041-0.008
		V66.191L66.775,66.191z"/>
	<path d="M66.775,63.191l-7.334-0.842v-1.994l7.235,0.83c0.021,0.002,0.039,0.004,0.058,0.004c0.016,0,0.027-0.006,0.041-0.008
		V63.191L66.775,63.191z"/>
	<path d="M66.775,60.191l-7.334-0.842v-1.994l7.235,0.83c0.021,0.002,0.039,0.004,0.058,0.004c0.016,0,0.027-0.006,0.041-0.008
		V60.191L66.775,60.191z"/>
	<path d="M59.441,87.355l7.234,0.832c0.02,0.002,0.039,0.002,0.059,0.002c0.015,0,0.027-0.006,0.041-0.008v2.01l-7.334-0.844V87.355
		L59.441,87.355z"/>
	<path d="M66.775,52.03v2.161l-2.555-0.293c0.4-0.263,0.799-0.527,1.188-0.813c0.238-0.176,0.473-0.361,0.705-0.547
		C66.333,52.369,66.563,52.21,66.775,52.03z"/>
	<path d="M59.8,55.115l-1.112-7.612c0.172-0.097,0.347-0.187,0.516-0.29c1.033-0.628,1.986-1.348,2.854-2.142l3.229,6.863
		C63.6,53.229,61.759,54.284,59.8,55.115z"/>
	<path d="M67.758,31.667c-0.021-1.031-0.124-2.042-0.313-3.024l7.539,0.866c0.082,0.828,0.125,1.667,0.125,2.516
		c0,0.754-0.041,1.504-0.108,2.25L67.758,31.667z"/>
	<path d="M55.213,22.064c-0.718-0.683-1.511-1.285-2.363-1.8l4.19-3.445c1.394,0.647,2.685,1.473,3.838,2.46L55.213,22.064z"/>
	<path d="M50.001,15.25c0.022,0,0.048,0.004,0.073,0.004l-2.38,3.193c-0.6-0.081-1.207-0.138-1.826-0.138
		c-0.71,0-1.402,0.071-2.083,0.177l0.93-2.378C46.415,15.544,48.189,15.25,50.001,15.25z"/>
	<path d="M44.169,15.229c-0.662,0.23-1.297,0.508-1.917,0.809l-1.101-7.507c1.692-0.639,3.472-1.1,5.313-1.361l-0.877,7.632
		C45.108,14.924,44.637,15.067,44.169,15.229z"/>
	<path d="M41.313,16.524c-0.507,0.284-0.995,0.594-1.467,0.924c-0.024,0.015-0.048,0.029-0.069,0.048
		c-0.645,0.454-1.257,0.947-1.831,1.479l-3.225-6.854c1.673-1.288,3.51-2.373,5.479-3.211L41.313,16.524z"/>
	<path d="M39.476,18.974l-0.115,1.001c-1.047,0.574-2.004,1.289-2.858,2.108C37.351,20.927,38.351,19.883,39.476,18.974z"/>
	<path d="M32.226,32.376v2.992l-7.333-0.843v-2.501c0-0.759,0.04-1.509,0.106-2.251L32.226,32.376z"/>
	<path d="M28.563,85.083c-2.271,0-3.661-0.729-3.661-1.125c0-0.035-0.004-0.069-0.011-0.103V81.17l7.333,0.844v1.944
		C32.226,84.355,30.836,85.083,28.563,85.083z"/>
	<path d="M47.75,57.029l2.605-7.241c1.021-0.021,2.031-0.128,3.026-0.323l-0.866,7.533c-0.832,0.083-1.672,0.136-2.517,0.136
		C49.246,57.133,48.495,57.096,47.75,57.029z"/>
	<path d="M66.771,91.958c0,0.396-1.391,1.125-3.66,1.125c-2.271,0-3.662-0.729-3.662-1.125c0-0.024-0.002-0.049-0.006-0.073v-1.529
		l7.234,0.83c0.021,0.002,0.039,0.004,0.059,0.004c0.015,0,0.027-0.006,0.041-0.008v0.701
		C66.771,91.909,66.771,91.934,66.771,91.958z"/>
	<path d="M66.938,50.559c-0.275,0.252-0.574,0.476-0.858,0.715l-3.265-6.938c0.711-0.734,1.348-1.527,1.914-2.364l4.709,5.932
		C68.673,48.842,67.842,49.732,66.938,50.559z"/>
	<path d="M69.264,15.941l-6.967,3.278c-0.729-0.701-1.511-1.35-2.354-1.92l5.935-4.709C67.107,13.598,68.242,14.72,69.264,15.941z"
		/>
	<path d="M52.252,7.023l-2.607,7.242c-1.021,0.02-2.032,0.128-3.024,0.32l0.865-7.542c0.827-0.083,1.666-0.126,2.517-0.126
		C50.76,6.917,51.51,6.956,52.252,7.023z"/>
	<path d="M33.917,12.763l3.269,6.947c-0.705,0.735-1.339,1.533-1.907,2.375l-4.713-5.937C31.574,14.917,32.694,13.784,33.917,12.763
		z"/>
</g>
</svg>
