<?xml version="1.0" encoding="utf-8"?>
<!-- Generator: Adobe Illustrator 16.0.4, SVG Export Plug-In . SVG Version: 6.00 Build 0)  -->
<!DOCTYPE svg PUBLIC "-//W3C//DTD SVG 1.1//EN" "http://www.w3.org/Graphics/SVG/1.1/DTD/svg11.dtd">
<svg version="1.1" id="Capa_1" xmlns="http://www.w3.org/2000/svg" xmlns:xlink="http://www.w3.org/1999/xlink" x="0px" y="0px"
	 width="64px" height="64px" viewBox="0 0 64 64" enable-background="new 0 0 64 64" xml:space="preserve">
<path d="M59.339,54.105L46.997,42.964c0.537-0.728,0.919-1.515,1.086-2.278l0.022-0.147c0.39-4.759,0.059-5.058-0.326-5.403
	l-26.015-23.49c-0.76-0.688-1.938-0.627-2.626,0.134l-0.967,1.07l-2.415-2.18l0.469-0.521C17.813,8.39,18.141,6.365,17,5.336
	c-1.14-1.028-3.12-0.497-4.708,1.262l-6,6.642c-1.588,1.759-1.913,3.783-0.776,4.812c1.142,1.029,3.122,0.499,4.71-1.26l0.469-0.519
	l2.415,2.181l-0.968,1.071c-0.686,0.761-0.626,1.938,0.134,2.625l26.017,23.493c1.137,1.024,5.509-0.248,5.553-0.264
	c0.742-0.246,1.487-0.705,2.155-1.312L58.342,55.21c0.305,0.274,0.775,0.251,1.051-0.056C59.667,54.854,59.645,54.383,59.339,54.105
	z M46.072,40.354c-0.288,1.166-1.803,2.537-2.926,2.906c-1.183,0.393-2.937,0.588-3.554,0.553L14.049,20.745l0.966-1.069
	c0.686-0.761,0.627-1.94-0.134-2.628l-4.348-3.925l-1.965,2.176c-0.611,0.676-1.186,0.945-1.484,1.02
	c0.043-0.305,0.253-0.904,0.864-1.581l6-6.644c0.61-0.678,1.185-0.947,1.484-1.02c-0.042,0.303-0.252,0.903-0.864,1.581
	l-1.964,2.174l4.348,3.927c0.762,0.685,1.94,0.626,2.626-0.135l0.968-1.071l3.699,3.34c-0.035,0.027-0.071,0.043-0.101,0.078
	l-4.045,4.479c-0.275,0.303-0.251,0.773,0.054,1.049c0.304,0.275,0.775,0.251,1.051-0.053l4.044-4.48
	c0.029-0.034,0.041-0.073,0.064-0.11l1.052,0.949c-0.035,0.026-0.073,0.042-0.104,0.074l-3.047,3.376
	c-0.276,0.305-0.253,0.776,0.052,1.051c0.306,0.276,0.776,0.25,1.053-0.054l3.046-3.376c0.031-0.033,0.044-0.07,0.065-0.108
	l1.051,0.949c-0.033,0.025-0.072,0.041-0.101,0.074l-4.046,4.48c-0.274,0.304-0.251,0.774,0.054,1.049
	c0.304,0.277,0.776,0.253,1.051-0.053l4.044-4.478c0.031-0.035,0.043-0.074,0.065-0.111l1.052,0.948
	c-0.035,0.027-0.072,0.043-0.104,0.075l-1.264,1.4c-0.067,0.051-0.138,0.095-0.198,0.161l-3.265,3.59
	c-0.399,0.44-0.465,1.032-0.142,1.325l11.899,11.012l0.011,0.008l0.515,0.47c0.018,0.017,0.045,0.019,0.064,0.032l2.287,1.979
	c0,0,1.896-0.137,3.244-1.44c1.609-1.561,1.367-3.631,1.367-3.631L42.775,35.5c-0.006-0.005-0.008-0.014-0.012-0.018l-0.511-0.465
	L30.878,24.492l0.719-0.796c0.03-0.034,0.043-0.071,0.065-0.109l14.37,12.976C46.479,37.947,46.507,38.607,46.072,40.354z
	 M40.871,40.456c0.202,0.188,0.213,0.505,0.025,0.707c-0.1,0.104-0.232,0.159-0.367,0.159c-0.121,0-0.243-0.045-0.34-0.135
	L28.67,30.476c-0.202-0.188-0.213-0.505-0.025-0.707c0.189-0.201,0.505-0.213,0.707-0.025L40.871,40.456z"/>
</svg>
