<?xml version="1.0" encoding="utf-8"?>
<!-- Generator: Adobe Illustrator 16.0.0, SVG Export Plug-In . SVG Version: 6.00 Build 0)  -->
<!DOCTYPE svg PUBLIC "-//W3C//DTD SVG 1.1//EN" "http://www.w3.org/Graphics/SVG/1.1/DTD/svg11.dtd">
<svg version="1.1" id="Layer_6" xmlns="http://www.w3.org/2000/svg" xmlns:xlink="http://www.w3.org/1999/xlink" x="0px" y="0px"
	 width="100px" height="100px" viewBox="0 0 100 100" enable-background="new 0 0 100 100" xml:space="preserve">
<path d="M9.734,73.99h13.494v14.115H9.734V73.99z M45.514,54.182H9.857v14.115h35.656V54.182z M90.084,54.182H54.428v14.115h35.656
	V54.182z M32.143,88.105h35.656V73.99H32.143V88.105z M76.713,88.105h13.742V73.99H76.713V88.105z M90.455,33.221v14.113H76.713
	V33.221h10.796c-4.649-1.021-8.545-2.219-11.664-3.586c-4.641,1.814-9.543,3.012-12.162,3.586h4.115v14.113H32.143V33.221h0.677
	c-3.496-0.877-6.512-1.863-9.018-2.961c-3.343,1.307-6.827,2.295-9.496,2.961h8.923v14.113H9.734V33.221l-0.189-0.982
	c2.648-0.512,7.291-1.635,11.74-3.209c-3.288-1.803-5.403-3.857-6.326-6.158c-0.48-1.195-0.558-2.283-0.463-3.184l-1.739-2.609
	l1.928,1.6c0.263-0.967,0.665-1.564,0.699-1.613c1.311-2.266,3.648-3.809,6.54-4.273c2.5-0.402,5.099,0.055,7.501,1.236
	l-0.869-2.008l2.224,2.648l-0.095,0.059c0.734,0.455,1.448,0.969,2.122,1.566c1.863,2.004,2.443,3.988,1.795,5.967
	c-0.91,2.775-4.254,5.08-8.209,6.902c2.607,0.992,5.886,1.955,9.981,2.834c2.722-0.584,6.708-1.605,10.556-2.967
	c-3.288-1.803-5.403-3.857-6.326-6.158c-0.407-1.012-0.525-1.947-0.495-2.758l-0.102,0.092l-1.917-2.877l2.14,1.775
	c0.243-1.217,0.76-1.982,0.799-2.039c1.311-2.266,3.648-3.809,6.54-4.273c2.313-0.373,4.716-0.02,6.966,0.971l-0.646-1.492
	l1.699,2.023c1,0.543,1.965,1.203,2.863,2c1.863,2.004,2.443,3.988,1.795,5.967c-0.91,2.775-4.254,5.08-8.209,6.902
	c2.529,0.963,5.685,1.896,9.609,2.756l-0.059-0.305c2.648-0.512,7.291-1.635,11.74-3.209c-3.288-1.803-5.403-3.857-6.326-6.158
	c-0.431-1.074-0.536-2.059-0.484-2.902l-1.594-2.391l1.726,1.432c0.25-1.16,0.74-1.891,0.778-1.945
	c1.311-2.266,3.648-3.809,6.54-4.273c2.458-0.396,5.012,0.037,7.381,1.176l-0.626-1.447l1.67,1.988
	c0.856,0.5,1.681,1.096,2.458,1.785c1.863,2.004,2.443,3.988,1.795,5.967c-0.91,2.775-4.254,5.08-8.209,6.902
	c2.85,1.086,6.491,2.135,11.137,3.078l-0.326,1.605H90.455z M23.811,28.074c2.291-0.93,4.402-1.98,6.012-3.125l-0.817-2.471
	l1.412,2.023c1.139-0.904,1.956-1.863,2.285-2.865c0.41-1.254-0.013-2.535-1.293-3.916c-2.21-1.959-5.015-3.07-7.696-3.07
	c-0.496,0-0.987,0.039-1.471,0.115c-1.225,0.197-2.314,0.639-3.228,1.277l2.018-0.074l-3.146,1.064
	c-0.306,0.338-0.582,0.703-0.814,1.104c-0.085,0.131-1.164,1.785-0.237,4.035C17.537,23.881,19.395,26.002,23.811,28.074z
	 M49.456,28.074c2.141-0.869,4.126-1.844,5.691-2.9l-0.809-2.445l1.409,2.02c1.307-0.977,2.241-2.018,2.6-3.111
	c0.41-1.254-0.013-2.535-1.293-3.916c-2.21-1.959-5.015-3.07-7.696-3.07c-0.496,0-0.987,0.039-1.471,0.115
	c-1.38,0.223-2.592,0.75-3.569,1.527l2.047-0.074l-3.006,1.018c-0.235,0.281-0.455,0.578-0.642,0.9
	c-0.085,0.131-1.164,1.785-0.237,4.035C43.182,23.881,45.04,26.002,49.456,28.074z M58.454,33.221
	c-3.493-0.877-6.503-1.863-9.007-2.961c-3.354,1.313-6.833,2.295-9.503,2.961H58.454z M75.854,27.449
	c2.275-0.924,4.372-1.967,5.978-3.102l-0.66-1.994l1.144,1.639c1.217-0.938,2.087-1.936,2.43-2.98
	c0.41-1.254-0.013-2.535-1.293-3.916c-2.21-1.959-5.015-3.07-7.696-3.07c-0.496,0-0.987,0.039-1.471,0.115
	c-1.517,0.244-2.828,0.859-3.849,1.768l1.762-0.064l-2.511,0.85c-0.208,0.258-0.404,0.527-0.573,0.818
	c-0.085,0.131-1.164,1.785-0.237,4.035C69.581,23.256,71.438,25.377,75.854,27.449z"/>
</svg>
