<?xml version="1.0" encoding="iso-8859-1"?>
<!-- Generator: Adobe Illustrator 17.0.0, SVG Export Plug-In . SVG Version: 6.00 Build 0)  -->
<!DOCTYPE svg PUBLIC "-//W3C//DTD SVG 1.1//EN" "http://www.w3.org/Graphics/SVG/1.1/DTD/svg11.dtd">
<svg version="1.1" id="Capa_1" xmlns="http://www.w3.org/2000/svg" xmlns:xlink="http://www.w3.org/1999/xlink" x="0px" y="0px"
	 width="64px" height="64px" viewBox="0 0 64 64" style="enable-background:new 0 0 64 64;" xml:space="preserve">
<g>
	<path d="M45.769,22.709c-4.002-2.643-5.364-9.093-5.364-9.093l-1.774-7.361c0.303-0.266,0.462-0.677,0.361-1.096
		c-0.145-0.602-0.751-0.973-1.353-0.828l-5.543,1.336c-0.219,0.053-0.392,0.18-0.536,0.332L26.83,4.659
		c-0.596-0.169-1.216,0.177-1.385,0.774c-0.117,0.415,0.025,0.832,0.317,1.11l-2.063,7.285c0,0-1.443,6.295-5.719,8.874
		c-4.923,2.969-5.433,7.349-9.254,20.84c-1.993,7.036-2.701,9.537-2.924,10.323c0,0-2.033,3.575,3.903,5.256
		c1.708,0.484,2.833,0.802,3.588,1.016c0.018,0.005,0.037,0.011,0.055,0.016c0.891,0.252,1.236,0.35,1.349,0.382
		c0.035,0.01,0.053,0.015,0.055,0.016c0.755,0.214,1.88,0.532,3.588,1.016c5.936,1.681,6.08-2.429,6.08-2.429
		c0.105-0.371,0.321-1.133,0.727-2.566l-9.713-2.751l5.808-20.506l9.686,2.743c0.999-4.278,0.988-6.877-0.535-9.841
		c-2.192-4.266-0.217-10.555-0.217-10.555l2.053-7.249l1.634,6.78c0,0,1.829,6.194-0.634,10.539
		c-1.762,3.11-1.769,5.861-0.734,10.771c0.089,0.423,0.189,0.869,0.293,1.325c0.632,2.769,1.527,6.177,2.594,10.604
		c1.713,7.109,2.322,9.636,2.513,10.43c0,0-0.019,4.112,5.979,2.667c1.725-0.416,2.862-0.69,3.625-0.873
		c0.018-0.004,0.038-0.009,0.055-0.013c0.9-0.217,1.248-0.301,1.363-0.328c0.036-0.009,0.054-0.013,0.055-0.013
		c0.763-0.184,1.9-0.458,3.625-0.873c5.998-1.445,4.108-5.098,4.108-5.098c-0.068-0.283-0.191-0.794-0.397-1.647l-10.042,2.42
		l-4.993-20.72l10.052-2.422C50.01,27.123,48.75,24.678,45.769,22.709z"/>
</g>
</svg>
