<?xml version="1.0" encoding="utf-8"?>
<!-- Generator: Adobe Illustrator 16.0.0, SVG Export Plug-In . SVG Version: 6.00 Build 0)  -->
<!DOCTYPE svg PUBLIC "-//W3C//DTD SVG 1.1//EN" "http://www.w3.org/Graphics/SVG/1.1/DTD/svg11.dtd">
<svg version="1.1" id="Layer_1" xmlns="http://www.w3.org/2000/svg" xmlns:xlink="http://www.w3.org/1999/xlink" x="0px" y="0px"
	 width="100px" height="100px" viewBox="0 0 100 100" enable-background="new 0 0 100 100" xml:space="preserve">
<path d="M80.933,29.339l-4.934,4.934c-0.2,0.201-0.471,0.313-0.76,0.292l-5.975-0.318c-0.51-0.027-0.918-0.436-0.945-0.945
	l-0.32-5.977c-0.015-0.283,0.091-0.561,0.292-0.761l4.933-4.933c-0.812-0.198-1.646-0.298-2.494-0.298
	c-2.804,0-5.44,1.093-7.424,3.075c-3.07,3.07-3.93,7.631-2.191,11.619c0.165,0.377,0.082,0.815-0.209,1.106L38.28,59.758
	c-0.279,0.28-0.697,0.369-1.066,0.227l-0.204-0.085c-0.047-0.021-0.095-0.043-0.144-0.06c-1.134-0.4-2.316-0.603-3.518-0.603
	c-2.799,0-5.43,1.089-7.407,3.066c-2.626,2.626-3.643,6.386-2.776,9.918l4.933-4.934c0.201-0.2,0.47-0.302,0.76-0.292l5.977,0.318
	c0.51,0.027,0.918,0.436,0.945,0.946l0.318,5.977c0.015,0.283-0.091,0.56-0.292,0.76l-4.932,4.933
	c0.812,0.198,1.646,0.298,2.494,0.298c2.804,0,5.439-1.092,7.422-3.075c2.951-2.949,3.865-7.373,2.33-11.271
	c-0.146-0.37-0.059-0.792,0.223-1.073l22.852-22.851c0.273-0.271,0.678-0.363,1.04-0.236c1.129,0.399,2.312,0.602,3.513,0.602
	c2.8,0,5.43-1.089,7.406-3.065C80.781,36.631,81.799,32.871,80.933,29.339z"/>
</svg>
