<?xml version="1.0" encoding="iso-8859-1"?>
<!-- Generator: Adobe Illustrator 17.0.0, SVG Export Plug-In . SVG Version: 6.00 Build 0)  -->
<!DOCTYPE svg PUBLIC "-//W3C//DTD SVG 1.1//EN" "http://www.w3.org/Graphics/SVG/1.1/DTD/svg11.dtd">
<svg version="1.1" id="Capa_1" xmlns="http://www.w3.org/2000/svg" xmlns:xlink="http://www.w3.org/1999/xlink" x="0px" y="0px"
	 width="64px" height="64px" viewBox="0 0 64 64" style="enable-background:new 0 0 64 64;" xml:space="preserve">
<path d="M58.618,24.688h-3.467V22.69c0-2.636-2.137-4.773-4.771-4.773h-39.81c-2.638,0-4.773,2.137-4.773,4.773v19.924
	c0,2.633,2.136,4.77,4.773,4.77h39.81c2.634,0,4.771-2.137,4.771-4.77v-2.088h3.467c1.317,0,2.387-1.071,2.387-2.388V27.071
	C61.005,25.755,59.935,24.688,58.618,24.688z M50.381,42.613h-39.81V22.69h39.81V42.613z"/>
<path d="M15.251,39.033h30.584c0.553,0,1-0.448,1-1V27.267c0-0.552-0.447-1-1-1H15.251c-0.553,0-1,0.448-1,1v10.766
	C14.251,38.585,14.698,39.033,15.251,39.033z"/>
</svg>
