<?xml version="1.0" encoding="iso-8859-1"?>
<!-- Generator: Adobe Illustrator 17.1.0, SVG Export Plug-In . SVG Version: 6.00 Build 0)  -->
<!DOCTYPE svg PUBLIC "-//W3C//DTD SVG 1.1//EN" "http://www.w3.org/Graphics/SVG/1.1/DTD/svg11.dtd">
<svg version="1.1" id="Capa_1" xmlns="http://www.w3.org/2000/svg" xmlns:xlink="http://www.w3.org/1999/xlink" x="0px" y="0px"
	 viewBox="0 0 64 64" style="enable-background:new 0 0 64 64;" xml:space="preserve">
<g>
	<path d="M53.844,37.032c0-3.331,0-8.386,0-11.157c0-4.373-3.936-17.933-21.214-16.62c-12.457,0.945-17.751,9.621-19.736,14.39
		c-0.013,0.032-0.016,0.065-0.028,0.097c-0.059,0.072-0.124,0.138-0.165,0.226c-0.196,0.426-4.79,10.572-3.945,21.534
		c0.011,0.147,0.053,0.284,0.116,0.408c0.003,0.027-0.003,0.05,0.001,0.078c0.438,3.402,1.879,6.424,3.094,8.463
		c0.927,1.556,3.208,2.131,4.878,1.429l33.978-14.298C52.491,40.879,53.844,38.844,53.844,37.032z M31.742,27.06
		c-1.184,3.374-3.765,8.729-8.954,12.374c-4.464,3.138-8.262,3.812-10.771,3.785c-0.411-0.004-0.805,0.051-1.172,0.148
		c-0.111-6.868,1.863-13.283,3.024-16.44c0.344,0.225,0.75,0.373,1.203,0.413c2.685,0.237,6.591-0.01,9.903-2.558
		c2.07-1.593,3.646-2.142,4.816-2.196C31.6,22.503,32.342,25.352,31.742,27.06z M45.096,37.686c-1.63,0-2.952-1.322-2.952-2.952
		s1.322-2.952,2.952-2.952s2.953,1.322,2.953,2.952S46.726,37.686,45.096,37.686z"/>
</g>
</svg>
