<?xml version="1.0" encoding="utf-8"?>
<!-- Generator: Adobe Illustrator 15.0.0, SVG Export Plug-In . SVG Version: 6.00 Build 0)  -->
<!DOCTYPE svg PUBLIC "-//W3C//DTD SVG 1.1//EN" "http://www.w3.org/Graphics/SVG/1.1/DTD/svg11.dtd">
<svg version="1.1" id="Layer_1" xmlns="http://www.w3.org/2000/svg" xmlns:xlink="http://www.w3.org/1999/xlink" x="0px" y="0px"
	 width="26px" height="26px" viewBox="0 0 26 26" enable-background="new 0 0 26 26" xml:space="preserve">
<g>
	<path d="M19.812,7.005c-1.73-1.729-3.036-1.946-3.262-1.721c-0.206,0.207-0.222,0.53-0.048,0.756l-2.127,3.826l2.535,2.534
		l3.823-2.124c0.227,0.196,0.568,0.188,0.783-0.026C21.742,10.025,21.541,8.735,19.812,7.005z M15.421,9.304l1.609-2.977
		l0.885,0.483C17.915,6.81,16.99,7.333,15.421,9.304z"/>
	<path d="M12.324,11.838l-0.272-0.271l-1.086,1.086l0.272,0.271L5.104,19.06c-0.184-0.037-0.381,0.018-0.524,0.158
		c-0.228,0.229-0.228,0.598,0,0.826l1.984,1.982c0.228,0.229,0.597,0.229,0.825,0c0.138-0.137,0.191-0.328,0.162-0.506l8.969-8.97
		l-2.453-2.454L12.324,11.838z M6.129,19.562l-0.362-0.363l7.804-7.803l0.362,0.362L6.129,19.562z"/>
</g>
</svg>
