<?xml version="1.0" encoding="utf-8"?>
<!-- Generator: Adobe Illustrator 16.0.0, SVG Export Plug-In . SVG Version: 6.00 Build 0)  -->
<!DOCTYPE svg PUBLIC "-//W3C//DTD SVG 1.1//EN" "http://www.w3.org/Graphics/SVG/1.1/DTD/svg11.dtd">
<svg version="1.1" id="Layer_1" xmlns="http://www.w3.org/2000/svg" xmlns:xlink="http://www.w3.org/1999/xlink" x="0px" y="0px"
	 width="100px" height="100px" viewBox="0 0 100 100" enable-background="new 0 0 100 100" xml:space="preserve">
<g>
	<path d="M59.652,81.207H47.684c-1.239,0-2.245,1.006-2.245,2.244c0,1.239,1.006,2.244,2.245,2.244h11.969
		c1.239,0,2.244-1.005,2.244-2.244C61.896,82.213,60.892,81.207,59.652,81.207z"/>
	<path d="M59.652,75.473H47.684c-1.239,0-2.245,1.005-2.245,2.244c0,1.238,1.006,2.244,2.245,2.244h11.969
		c1.239,0,2.244-1.006,2.244-2.244C61.896,76.478,60.892,75.473,59.652,75.473z"/>
	<path d="M53.169,18.059c-13.303,0-24.125,10.822-24.125,24.125c0,7.787,6.428,16.992,11.817,23.344
		c2.736,3.225,3.719,4.751,4.066,5.389c-0.015,0.102-0.023,0.207-0.023,0.313c0,1.239,1.005,2.244,2.244,2.244h13.004
		c0.01-0.001,0.021,0,0.028,0c1.241,0,2.244-1.005,2.244-2.244c0-0.312-0.063-0.608-0.178-0.878
		c0.219-0.507,0.715-1.465,1.826-3.101c0.912-1.341,1.888-2.725,2.882-4.13c5.083-7.201,10.34-14.647,10.34-20.938
		C77.295,28.881,66.473,18.059,53.169,18.059z"/>
</g>
</svg>
