<?xml version="1.0" encoding="utf-8"?>
<!-- Generator: Adobe Illustrator 16.0.0, SVG Export Plug-In . SVG Version: 6.00 Build 0)  -->
<!DOCTYPE svg PUBLIC "-//W3C//DTD SVG 1.1//EN" "http://www.w3.org/Graphics/SVG/1.1/DTD/svg11.dtd">
<svg version="1.1" id="Layer_10" xmlns="http://www.w3.org/2000/svg" xmlns:xlink="http://www.w3.org/1999/xlink" x="0px" y="0px"
	 width="100px" height="100px" viewBox="0 0 100 100" enable-background="new 0 0 100 100" xml:space="preserve">
<path d="M76.775,33.029l-4.231-0.166l-0.188-4.769l4.231,0.166L76.775,33.029z M77.006,38.89l-0.183-4.631l-4.381-0.171l0.181,4.629
	L77.006,38.89z M61.242,32.28l4.454,0.175l-0.154-3.915l-4.453-0.175L61.242,32.28z M71.934,21.71l0.18,0.179l0.195,4.975
	l4.975,0.195l0.507,0.506l0.216,5.512l5.338,0.21c-0.648-3.633-2.659-7.489-5.899-10.729c-3.385-3.385-7.444-5.422-11.215-5.969
	l0.192,4.904L71.934,21.71z M71.393,38.668L71.205,33.9l-4.23-0.166l0.187,4.769L71.393,38.668z M61.041,27.134l4.383,0.173
	l-0.183-4.631l-4.382-0.172L61.041,27.134z M55.352,34.771L26.813,63.31L16.438,83.564c0,0,17.523-7.646,20.253-10.375l28.6-28.6
	c-2.249-1.228-4.125-2.741-5.616-4.232C57.345,38.027,55.922,35.765,55.352,34.771z M83.478,34.291l-0.009,0.228l-5.417-0.212
	l0.197,4.996l-0.015,1.004l-5.563-0.359l0.195,4.994l-1.226,0.047l-0.2-5.091l-5.092-0.2l-0.385-0.385l-0.221-5.628l-5.627-0.219
	l0.001-0.063l-0.061,0.003l-0.199-5.091l-5.092-0.2l0.048-1.226l4.994,0.195l-0.212-5.415l0.6-0.42l4.996,0.197l-0.196-4.987
	c-3.047-0.179-5.83,0.666-7.806,2.641c-3.387,3.387-3.46,9.136-0.711,14.541l-0.004,0.003c0.801,1.427,4.036,6.665,9.945,9.832
	c0.043,0.023,0.087,0.045,0.132,0.067l-0.027,0.051c5.357,2.666,11.023,2.569,14.375-0.784
	C83.031,40.682,83.843,37.616,83.478,34.291z M71.308,32.674l-0.182-4.628l-4.381-0.171l0.181,4.629L71.308,32.674z M66.471,22.725
	l0.154,3.917l4.453,0.173l-0.155-3.916L66.471,22.725z"/>
</svg>
