<?xml version="1.0" encoding="iso-8859-1"?>
<!-- Generator: Adobe Illustrator 16.0.4, SVG Export Plug-In . SVG Version: 6.00 Build 0)  -->
<!DOCTYPE svg PUBLIC "-//W3C//DTD SVG 1.1//EN" "http://www.w3.org/Graphics/SVG/1.1/DTD/svg11.dtd">
<svg version="1.1" id="Capa_1" xmlns="http://www.w3.org/2000/svg" xmlns:xlink="http://www.w3.org/1999/xlink" x="0px" y="0px"
	 width="54.833px" height="60.428px" viewBox="0 0 54.833 60.428" style="enable-background:new 0 0 54.833 60.428;"
	 xml:space="preserve">
<g>
	<path id="path3784" style="fill:#040606;" d="M9.89,15.683c2.954-1.861,6.205-3.263,9.583-4.155
		c2.67-0.705,5.347-0.894,5.887-0.931c0.316-0.022,0.656-0.049,0.979-0.049c0.321,0,0.626,0.028,0.87,0.114
		c0.458,0.163,0.125,2.173-0.588,4.025c-0.714,1.854-1.021,5.67-1.389,8.407c-0.043,0.319-0.089,0.636-0.141,0.949
		c-0.451,2.725-4.3,5.169-6.881,4.224c-1.551-0.569-3.062-1.422-4.57-1.972c-1.322-0.6-2.675-1.183-3.906-1.895
		c-2.076-1.202-4.791-2.764-5.064-3.988C4.395,19.187,7.554,17.155,9.89,15.683L9.89,15.683z M31.641,4.703
		c1.035-1.226,2.395-2.178,3.937-2.664c1.04-0.375,2.102-0.557,3.154-0.568c2.906-0.031,5.734,1.234,7.8,3.292
		c1.955,1.95,3.106,5.082,2.148,5.425c-0.957,0.342,0.161,2.69,0.438,4.298c0.156,0.915,0.197,1.872-0.04,2.934
		c-0.959,3.917-3.242-0.348-4.798-1.715c-0.399-0.34-1.5-0.566-2.454-0.737c-1.404-0.252-1.558-1.745-3.167-2.176
		c-1.609-0.43-4.085-1.873-5.814-2.601C31.115,9.462,29.926,6.736,31.641,4.703L31.641,4.703z M41.685,17.698
		c-0.393,0.5-0.938-0.36-0.745-0.606c0.172-0.217,0.326-0.308,0.455-0.314C41.759,16.76,41.922,17.397,41.685,17.698z
		 M50.707,11.681c0.326,0,0.592,0.29,0.592,0.645c0,0.356-0.051,1.289-0.377,1.289s-0.805-0.933-0.805-1.289
		C50.117,11.971,50.381,11.681,50.707,11.681z M6.566,28.191c3.806,2.045,7.72,4.25,11.887,5.782
		c1.459,0.665,2.999,1.373,4.346,2.304c2.237,1.548,4.174,4.952,5.126,6.7c0.951,1.75,2.605,4.755,3.651,6.752
		c1.046,1.997,2.309,4.631,2.897,5.848c0.345,0.714,0.636,1.329,1.12,2.177c0.372,0.598,0.5,1.167,0.679,1.701
		c0.322,0.964,2.613,1.333,4.412,0.54c1.8-0.791,1.724-4.256,0.455-6.708c-2.966-5.731-6.25-11.306-9.499-16.88
		c-1.501-2.599-3.108-5.659-2.417-8.698c0.426-2.999,1.09-6.946,1.756-11.086c0.439-2.727-0.362-6.154,0.315-5.577
		c0.679,0.578,2.85,1.312,4.277,2.534c1.428,1.222,3.245,3.115,3.202,4.433c-0.042,1.316,2.685,2.501,4.606,2.971
		c1.923,0.47,4.709,1.03,6.18,1.573c1.473,0.541,4.148-0.606,4.846-2.371c0.431-1.093,0.577-2.312,0.247-3.363
		c-0.497-2.083-1.351-4.21-2.683-5.524c-0.741-0.886-1.122-2.132-1.572-3.376c-0.705-1.945-3.18-5.135-5.616-6.437
		C42.961,0.515,40.89,0.001,38.832,0c-2.71-0.002-5.398,0.884-7.464,2.78c-0.503,0.471-0.96,0.989-1.361,1.545
		c-0.663,0.924-1.573,4.483-4.252,4.53c-2.678,0.046-6.989,0.866-9.599,1.768c-3.55,1.228-6.968,2.929-9.853,5.283
		c-2.139,1.746-4.686,2.801-5.851,3.451c-1.165,0.651,0.096,3.929,1.756,6.135C3.288,26.926,3.652,26.869,6.566,28.191"/>
</g>
<g>
</g>
<g>
</g>
<g>
</g>
<g>
</g>
<g>
</g>
<g>
</g>
<g>
</g>
<g>
</g>
<g>
</g>
<g>
</g>
<g>
</g>
<g>
</g>
<g>
</g>
<g>
</g>
<g>
</g>
</svg>
