<?xml version="1.0" encoding="iso-8859-1"?>
<!-- Generator: Adobe Illustrator 17.0.0, SVG Export Plug-In . SVG Version: 6.00 Build 0)  -->
<!DOCTYPE svg PUBLIC "-//W3C//DTD SVG 1.1//EN" "http://www.w3.org/Graphics/SVG/1.1/DTD/svg11.dtd">
<svg version="1.1" id="Capa_1" xmlns="http://www.w3.org/2000/svg" xmlns:xlink="http://www.w3.org/1999/xlink" x="0px" y="0px"
	 width="64px" height="64px" viewBox="0 0 64 64" style="enable-background:new 0 0 64 64;" xml:space="preserve">
<g>
	<path d="M61.446,52.455c-0.506-0.506-0.992-0.281-1.489,0.167c-0.002-0.002-0.003-0.004-0.004-0.005L11.12,3.784
		c0.327-0.617,0.063-1.592-0.521-2.175l-0.482-0.482c-0.666-0.666-1.91-0.984-2.481-0.413L3.087,5.263
		C2.516,5.834,2.835,7.078,3.5,7.744l0.482,0.482C4.566,8.81,5.541,9.074,6.157,8.747l33.117,33.117l-11.58,11.58
		c-0.012,0.012-0.018,0.024-0.029,0.036c-0.548-0.392-1.228-0.434-1.628-0.033l-0.332,0.332c-0.459,0.459-0.856,1.782-0.285,2.353
		l4.549,4.549c0.571,0.571,1.894,0.174,2.353-0.285l0.332-0.332c0.401-0.401,0.359-1.08-0.033-1.628
		c0.012-0.012,0.024-0.017,0.037-0.029l11.58-11.58L54.99,57.579c0.002,0.002,0.004,0.003,0.005,0.004
		c-0.448,0.497-0.672,0.983-0.167,1.489l0.418,0.418c0.577,0.577,1.861,0.935,2.432,0.364l4.549-4.549
		c0.571-0.571,0.213-1.854-0.364-2.432L61.446,52.455z"/>
</g>
</svg>
