<?xml version="1.0" encoding="utf-8"?>
<!-- Generator: Adobe Illustrator 17.0.0, SVG Export Plug-In . SVG Version: 6.00 Build 0)  -->
<!DOCTYPE svg PUBLIC "-//W3C//DTD SVG 1.1//EN" "http://www.w3.org/Graphics/SVG/1.1/DTD/svg11.dtd">
<svg version="1.1" id="Capa_1" xmlns="http://www.w3.org/2000/svg" xmlns:xlink="http://www.w3.org/1999/xlink" x="0px" y="0px"
	 width="64px" height="64px" viewBox="0 0 64 64" enable-background="new 0 0 64 64" xml:space="preserve">
<path d="M7.157,24.005l4.783,6.442c0.3,0.405,0.855,0.524,1.292,0.276l6.067-3.405l0.172,25.907c0.004,0.55,0.45,0.993,1,0.993
	h23.737c0.552,0,1-0.447,1-1V27.625l5.817,2.237c0.448,0.172,0.955,0.002,1.208-0.405l4.233-6.805
	c0.273-0.439,0.167-1.015-0.247-1.326l-11.544-8.719c-0.091-0.069-0.194-0.122-0.303-0.156l-5.989-1.882
	c-0.523-0.163-1.088,0.128-1.254,0.654c-0.166,0.527,0.127,1.088,0.654,1.254l5.824,1.83l10.677,8.063l-3.314,5.327l-6.405-2.463
	c-0.308-0.118-0.653-0.077-0.925,0.109c-0.272,0.187-0.434,0.495-0.434,0.824v26.05H21.464L21.288,25.61
	c-0.002-0.354-0.191-0.68-0.498-0.858c-0.306-0.179-0.683-0.181-0.992-0.008l-6.778,3.804l-3.717-5.007l10.741-9.719l4.856-1.302
	c0.534-0.143,0.85-0.691,0.707-1.225c-0.143-0.534-0.693-0.852-1.225-0.707l-5.089,1.364c-0.153,0.041-0.295,0.118-0.412,0.225
	L7.289,22.668C6.907,23.013,6.85,23.592,7.157,24.005z"/>
<path d="M35.463,13.876c-0.005,0.016-0.673,1.627-4.131,1.683c-3.439,0.052-4.061-1.58-4.101-1.687
	c-0.167-0.517-0.715-0.807-1.239-0.65c-0.529,0.159-0.829,0.717-0.669,1.246c0.038,0.128,0.985,3.093,5.844,3.093
	c0.065,0,0.131-0.001,0.197-0.002c4.993-0.081,5.965-2.953,6.004-3.075c0.168-0.526-0.123-1.089-0.649-1.257
	C36.197,13.059,35.632,13.35,35.463,13.876z"/>
</svg>
