<?xml version="1.0" encoding="utf-8"?>
<!-- Generator: Adobe Illustrator 16.0.4, SVG Export Plug-In . SVG Version: 6.00 Build 0)  -->
<!DOCTYPE svg PUBLIC "-//W3C//DTD SVG 1.1//EN" "http://www.w3.org/Graphics/SVG/1.1/DTD/svg11.dtd">
<svg version="1.1" id="Layer_1" xmlns="http://www.w3.org/2000/svg" xmlns:xlink="http://www.w3.org/1999/xlink" x="0px" y="0px"
	 width="26px" height="26px" viewBox="0 0 26 26" enable-background="new 0 0 26 26" xml:space="preserve">
<g>
	<path fill="#333333" d="M3,18h16c1.654,0,3-1.346,3-3s-1.346-3-3-3H3c-0.551,0-1-0.449-1-1c0-0.192,0.001-0.592,1.323-1.053
		l7.538-2.513l-0.633-1.897L2.684,8.051l0.001,0.002c-0.004,0.001-0.009,0-0.013,0.002C2.011,8.286,0,8.985,0,11
		c0,1.654,1.346,3,3,3h16c0.552,0,1,0.448,1,1s-0.448,1-1,1H3c-1.654,0-3,1.346-3,3s1.346,3,3,3h16c0.552,0,1,0.448,1,1
		s-0.448,1-1,1H0v2h19c1.654,0,3-1.346,3-3s-1.346-3-3-3H3c-0.551,0-1-0.448-1-1S2.449,18,3,18z"/>
	<path fill="#333333" d="M14.414,8.364l-0.349-1.085c1.157-0.563,3.165-1.563,4.499-2.346l-0.611-1.905
		c-1.633,0.204-3.78,0.53-5.019,0.723l-0.353-1.1l-1.904,0.611l1.833,5.713L14.414,8.364z"/>
	<path fill="#333333" d="M24.506,1c-1.271,0-2.637,1.107-4.121,2.109c2.361-0.572,2.961,0.879,4.121,0.879
		C25.331,3.988,26,3.319,26,2.494C26,1.669,25.331,1,24.506,1z"/>
</g>
</svg>
