<?xml version="1.0" encoding="utf-8"?>
<!-- Generator: Adobe Illustrator 17.0.0, SVG Export Plug-In . SVG Version: 6.00 Build 0)  -->
<!DOCTYPE svg PUBLIC "-//W3C//DTD SVG 1.1//EN" "http://www.w3.org/Graphics/SVG/1.1/DTD/svg11.dtd">
<svg version="1.1" id="Capa_1" xmlns="http://www.w3.org/2000/svg" xmlns:xlink="http://www.w3.org/1999/xlink" x="0px" y="0px"
	 width="64px" height="64px" viewBox="0 0 64 64" enable-background="new 0 0 64 64" xml:space="preserve">
<path d="M43.77,43.5c0,3.92-2.866,7.081-6.538,7.462C36.986,50.985,36.738,51,36.486,51H23.74c-0.252,0-0.501-0.015-0.746-0.038
	c-3.672-0.381-6.538-3.543-6.538-7.462c0-4.181,3.261-7.5,7.284-7.5h2.123c0.793,0.169,1.613,0.307,2.463,0.402
	c0.948,0.106,1.9,0.187,2.829,0.187c1.84,0,3.533-0.211,5.022-0.589h0.309C40.508,36,43.769,39.319,43.77,43.5z M25.724,35
	c0.868,0.198,1.773,0.357,2.713,0.462c0.929,0.104,1.838,0.154,2.718,0.154c1.835,0,3.534-0.221,5.003-0.616
	c2.946-0.792,4.953-2.298,5.168-4.219c0.259-2.314-2.144-4.616-5.887-6.064C34.892,24.895,34.309,25,33.69,25h-6.38
	c-1.468,0-2.902-0.548-4.108-1.434c-3.561,0.684-6.061,2.324-6.303,4.484C16.578,30.924,20.363,33.778,25.724,35z M23.272,22.343
	c0.237,0.21,0.485,0.404,0.746,0.58c0.231,0.156,0.47,0.295,0.716,0.42C25.543,23.755,26.421,24,27.31,24h5.888h0.492
	c0.332,0,0.649-0.041,0.956-0.104c0.32-0.066,0.625-0.163,0.916-0.29C37.689,22.678,39,20.221,39,17.69v-0.38
	c0-3.209-2.101-5.31-5.31-5.31h-6.38C24.101,12,21,14.101,21,17.31v0.381C21,19.435,21.92,21.143,23.272,22.343z"/>
</svg>
